<svg xmlns="http://www.w3.org/2000/svg" fill="none" version="1.1" viewBox="0 0 239.12 239.12">
  <path d="m119.56 0c-28.222 0-54.175 9.8017-74.635 26.182l0.03516 0.06641c-16.336 13.078-29.154 30.349-36.84 50.186-0.02178-0.0225-0.04465-0.0439-0.06641-0.0664-5.2 13.395-8.0527 27.963-8.0527 43.193 0 65.986 53.572 119.56 119.56 119.56 65.987 0 119.56-53.573 119.56-119.56 0-14.597-2.621-28.585-7.418-41.518-0.0163 9e-3 -0.0419 0.0105-0.0586 0.0195-6.5749-17.742-17.25-33.489-30.863-46.115 0.0122-0.0199 0.023-0.04065 0.0352-0.06055-21.332-19.783-49.891-31.887-81.254-31.887zm-73.217 28.955c1.0643 2.0506 2.1524 4.092 3.1289 6.1816 0.481 1.052 0.7462 2.17 1.6582 2.998 0.266 0.215 0.09963 0.77819 0.26563 1.1172 0.372 0.737 0.79612 1.4335 1.2031 2.1465 0.107 0.19 0.33203 0.39631 0.33203 0.57031-0.125 0.994 0.63736 1.5665 0.94336 2.3945 0.548 1.408 1.6916 2.5586 1.8496 4.1406 1e-3 0.099 0.03942 0.19462 0.10742 0.26562 0.878 0.712 1.019 1.8142 1.5 2.7422 1.327 2.567 2.7117 5.0185 4.0957 7.6445 1.384 2.625 2.7605 5.2523 4.1035 7.9023 1.26 2.493 2.487 5.0355 3.748 7.5195 0.098 0.24 0.26547 0.44389 0.48047 0.58789 2.3951 1.234 4.8165 2.4111 7.1875 3.6621 0.878 0.455 1.6573 1.1272 2.4863 1.6562 1.077 0.672 2.2468 1.2167 3.2578 1.9707 1.724 1.284 3.3821 2.6676 5.0391 4.0586 1.874 1.575 3.7315 3.2317 5.5215 4.8887 0.733 0.752 1.4102 1.5534 2.0312 2.4004 1.185 1.441 2.4282 2.8408 3.5312 4.3398 0.854 1.159 1.5511 2.4115 2.2891 3.6465 0.216 0.288 0.32745 0.64095 0.31445 1.002-0.191 0.77-0.36487 1.3398 0.82813 1.1328 0.182-0.025 0.56353 0.9126 0.76953 1.4336 0.051 0.29299 0.051 0.59271 0 0.88671l0.29101-0.10742c0.299 0.306 0.77994 0.58774 0.96094 0.92774 0.194 0.828 0.26399 1.6774 0.20899 2.5254-0.067 0.861-0.66377 1.0935-1.3848 0.6875-0.38 0.522-0.71309 1.0762-0.99609 1.6562-0.206 0.563-0.59447 1.1358-0.10547 1.8398 0.164 0.462 0.21262 0.95641 0.14062 1.4414v3.6777c1.037-0.199 1.4421-0.71278 1.0371-1.3008-0.299-0.332-0.50465-0.73588-0.59765-1.1719-0.092-0.436-0.0696-0.88851 0.0664-1.3125 0.108-0.34-0.366-0.86899-0.25-1.209 0.331-1.002 0.15036-2.2704 1.4434-2.8574 0.199-0.125 0.42035-0.20628 0.65235-0.23828 0.23299-0.032 0.46935-0.0152 0.69335 0.0508 0.225 0.066 0.43233 0.17708 0.61133 0.33008 0.177 0.152 0.32088 0.34073 0.42188 0.55273l0.0918 0.17383c0.654 1.3 0.65371 1.2989-0.77929 2.0449 1.442-0.034 1.6562 0.85305 1.6562 1.748 3e-3 1.314-0.10146 2.6288-0.31446 3.9258-0.165 0.986-1.963 1.1102-2.793 0.28125-0.116-0.146-0.26365-0.26466-0.43165-0.34766 0.159 0.555-0.15749 1.334 0.9375 1.334 0.248-0.016 0.54613 0.41448 0.82813 0.64648-0.165 0.174-0.32991 0.50391-0.50391 0.50391-0.405-1e-3 -0.80668-0.0832-1.1797-0.24024-0.274-0.151-0.53072-0.33487-0.76172-0.54687-0.108-0.074-0.33985-0.12288-0.33985-0.17188 0.107-1.591-1.9883-1.641-2.1133-3.123l0.82813-0.62891c-0.454-0.308-0.92602-0.58508-1.416-0.83008-0.995-0.398-1.0787-0.62025-0.76367-1.6562 2e-3 -0.164-0.0382-0.32765-0.11719-0.47265-0.078-0.144-0.19108-0.26647-0.33008-0.35547-1.559-0.571-2.0056-1.5406-1.2676-2.8906-0.895-0.613-1.8419-1.2007-2.6699-1.8457-0.157-0.109-0.10725-0.43988-0.15625-0.67188 0.331-0.041 0.71175-0.2156 0.96875-0.0996 0.641 0.346 1.2624 0.7294 1.8574 1.1504v-1.1016l-2.7207-0.37109c-0.058-8e-3 -0.16601-0.0418-0.16601-0.0918-0.456-1.169-2.1379-1.5828-2.2539-2.5938-0.174-1.515-1.0861-2.2681-1.9141-3.2461-0.308-0.356-0.69759-0.86981-0.1836-1.5078 0.149-0.183-0.21623-0.78563-0.36523-1.2656l-0.76953 0.29688c-0.334-0.183-0.60349-0.4666-0.77148-0.8086-0.168-0.343-0.22602-0.72947-0.16602-1.1055-0.03-0.17-0.0954-0.33161-0.19141-0.47461-0.097-0.143-0.22309-0.26351-0.37109-0.35351-0.383-0.177-0.71938-0.43863-0.98438-0.76563-0.265-0.328-0.44996-0.71109-0.54296-1.1211-0.246-0.654-0.62157-1.2499-1.1016-1.7559-0.696-0.928-1.4663-1.8062-2.1543-2.7422-0.249-0.401-0.45347-0.83034-0.60547-1.2773-0.076-0.149-0.11622-0.4375-0.19922-0.4375-1.236-0.191-1.3858-1.4593-2.2148-2.0723 0.927 2.276 2.1488 4.4199 3.6328 6.3789l-1.6582 0.32227 0.67188 0.30664c0.294 0.085 0.57212 0.21286 0.82812 0.38086 0.62 0.495 1.1782 1.0662 1.6582 1.6992 0.183 0.306 0.059 0.8686 0 1.3086-0.024 0.215-0.23927 0.40414-0.44727 0.74414 1.044 0 1.8646 0.084 1.7656 1.293-8e-3 0.108 0.28129 0.23323 0.40429 0.36523 0.316 0.306 0.61393 0.62836 0.91993 0.94336l-1.0762 0.93555c0.281 0.134 0.57772 0.22644 0.88672 0.27344 0.886-0.016 1.3278 0.22476 1.4688 1.2598 0.124 0.895 0.23024 2.0286 1.4902 2.3516 0.497 0.132 1.0611 2.1634 0.82812 2.7344-0.115 0.298-0.2055 0.60316-0.3125 0.91015l0.35547 0.125 0.43164-1.2012c0.365 0.663 0.72074 1.2849 1.0527 1.9219 0.075 0.141 0.0823 0.43945 0.15625 0.43945 1.244 0.207 0.80436 1.4901 1.3184 2.0371 0.795 0.837 1.078 1.955 1.75 2.709 0.735 0.64899 1.2358 1.5224 1.4258 2.4844 0.041 0.364 0.63776 0.66181 1.1348 1.1328-0.05 0.376 0.0117 0.75766 0.17774 1.0977 0.168 0.339 0.43176 0.61959 0.75976 0.80859 0.779 0.588 0.17419 1.4835-0.25781 2.1055-0.54 0.706-1.1259 1.3759-1.7559 2.0039-0.779 0.853-2.2217 0.89473-2.6777 2.1777-0.05 0.125-0.33322 0.17442-0.44922 0.23242l1.0703 0.95313c0.174-0.455 0.32267-0.87016 0.51367-1.2852 0.248-0.522 0.47178-1.0601 1.3008-0.82812 0.215 0.058 0.68108-0.32228 0.83008-0.61328 0.315-0.587 0.45539-1.2836 1.4004-0.93555 0.075 0.025 0.28947-0.40608 0.48047-0.58008 0.331-0.29 0.7223-0.81172 1.0293-0.76172 0.431 0.058 1.0601 0.34719 0.82812 1.1172-0.026 0.099 0.0334 0.33984 0.10742 0.33984 0.722 0.348 0.77171 1.0772 1.0957 1.6562 0.583 0.895 1.2127 1.7589 1.8887 2.5859 0.693 0.953 1.3368 1.9428 1.9238 2.9648 0.415 0.762-0.19132 1.8386-0.94532 2.3106-0.66899 0.411-1.2841 0.9038-1.8301 1.4668-0.945 0.824-2.0244 1.4767-3.1934 1.9297-0.256 0.124-0.86216-0.21486-1.1602-0.50586-1.84-1.772-3.6799-3.5362-5.4219-5.4082-2.205-2.369-4.3354-4.7875-6.4414-7.2715-1.244-1.45-2.2785-3.1067-3.6055-4.4727-1.26-1.463-2.4002-3.0259-3.4082-4.6719-1.111-1.583-2.1629-3.2155-3.2559-4.8145-0.279-0.42399-0.64331-0.78554-1.0703-1.0605-0.241 1.458 0.68853 2.4871 1.1445 3.6621-1.385 0.324-1.3855 0.32297-1.1445 1.043 0.90299-0.679 0.7462-0.37174 1.6582 0.44726 0.912 0.821 0.82759 1.8478 1.3086 2.7188 0.041 0.09 0.067 0.25586 0.125 0.25586 1.385 0.381 1.2602 1.6722 1.6582 2.6582 0.076 0.214 0.20123 0.40846 0.36523 0.56446 0.886 0.779 0.88453 0.77086 0.64453 1.7559 1.75 1.16 1.8667 1.3664 1.3867 3.0234 0.566 0.204 1.0888 0.50754 1.5488 0.89454 0.254 0.498 0.32622 1.0702 0.19922 1.6152 0.415 0.464 1.3611 0.43844 1.2441 1.5234-0.33 1.21-1.0755 2.2664-2.1055 2.9824-0.373 0.183-0.6313 0.68794-0.9043 0.96094s-0.64653 0.75212-0.89453 0.70312c-0.771-0.132-1.0291 0.33913-1.3691 0.82813-0.218 0.28-0.45589 0.54311-0.71289 0.78711l0.78711 0.82812c0.076-0.141 0.31562-0.3883 0.26562-0.5293-0.208-0.564-0.11476-1.0203 0.49024-1.1113 0.439 5e-3 0.87597 0.0788 1.293 0.21679l0.0566 0.32227c0.133-0.215 0.44862-0.52967 0.39062-0.63867-0.473-0.861 0.16589-1.0258 0.71289-1.4238 0.547-0.397 0.93563-1.0352 1.7656-1.0352 0.181-8e-3 0.36387-0.54653 0.54687-0.76953 0.182-0.224 0.40547-0.41486 0.60547-0.63086 0.22 0.217 0.42805 0.44846 0.62305 0.68946 0.207 0.29799 0.36369 0.63717 0.55469 0.95117 0.066 0.108 0.24023 0.19164 0.24023 0.30664 0.374 1.525 1.9071 2.4105 2.3301 3.7695 0.356 1.167 1.9142 1.54 1.6582 2.998-0.042 0.231 0.63794 0.57953 0.96094 0.89453 0.589 0.538 0.763 1.0434 0 1.6074-0.546 0.405-0.92177 1.1414-1.5098 1.3574-2.056 0.77-3.6301 2.3943-5.7441 3.0723-1.004 0.298-1.6837 0.4647-2.4297-0.5293-1.343-1.781-2.8852-3.3948-4.2852-5.1348-1.941-2.41-3.8711-4.8304-5.7031-7.3144-1.31-1.782-2.4386-3.7026-3.6406-5.5586-1.3511-2.078-2.7671-4.1157-3.9941-6.2617-0.904-1.598-1.5511-3.3128-2.3301-4.9688-0.095-0.165-0.20603-0.32185-0.33203-0.46485-1.202 0.862-0.03984 1.7396-0.08984 2.6426l-0.83008 0.6211c2.18-0.133 1.069 1.4913 1.5 2.2773 0.497 0.928 0.53211 2.1622 1.1621 2.9492 0.628 0.813 0.92312 1.8344 0.82812 2.8574-0.017 0.687 0.21692 0.92011 1.0449 0.78711l-0.47266 0.55469c0.828 1.409 1.6577 2.7922 2.3867 4.2832 0.158 0.322-0.02403 0.86919-0.08203 1.2422-0.058 0.372-0.05859 0.74481-0.05859 1.2578l1.0605-0.36328c0.497 0.687 1.3435 1.2429 0.73047 2.2539 1.293 1.002 1.3022 1.3158 0.0762 2.3438-0.29 0.215-0.59808 0.35512-0.83008 0.57812-0.175 0.202-0.33466 0.41849-0.47266 0.64648 0.182 0.108 0.23178 0.33165 0.54688 0.30665 0.315-0.025 0.75412-0.13127 0.82812-0.32227 0.256-0.646 0.61476-1.185 1.3438-1.002 0.342 0.062 0.65468 0.23418 0.88868 0.49218 0.234 0.257 0.37529 0.58565 0.40429 0.93165 0.025 0.31499 0.35644 0.56312 0.52344 0.82812 0.165 0.264 0.30608 0.54713 0.45508 0.82812 0.21 0.284 0.37247 0.59955 0.48047 0.93555 0.149 1.135 1.228 1.5664 1.709 2.4434 0.348 0.638 0.83578 1.194 1.1758 1.832 0.155 0.405 0.25664 0.82682 0.30664 1.2578l-1.1016 0.21484c-0.544 0.486-1.1414 0.91534-1.7754 1.2773-1.492 0.629-3.0258 1.1589-4.5508 1.7129-0.608 0.235-1.2312 0.42903-1.8652 0.58203-1.027 0.223-1.4833-0.67957-1.9473-1.2676-2.222-2.775-4.4352-5.5082-6.3672-8.4492-2.18-3.313-4.103-6.8095-6.043-10.271-1.269-2.261-2.3718-4.6126-3.5488-6.9316-0.206 0.399-0.30692 0.84302-0.29492 1.291 0.011 0.449 0.13633 0.88834 0.36133 1.2773 0.059 0.074 0.19922 0.13985 0.19922 0.21485 0.05 1.573 1.5743 3.0217 0.5293 4.5957 0.465 0.422 0.8757 0.90083 1.2207 1.4238 0.165 0.316-0.07578 0.87214-0.05078 1.2441 0.024 0.373 0.0848 1.0762 0.2168 1.0762 1.45 0.239 1.1435 1.3253 0.97852 2.1543-0.133 0.662-0.1417 0.9842 0.5293 1.2832 0.215 0.099 0.26447 0.61333 0.35547 0.98633 0.092 0.373 0.0086 0.87661 0.22461 1.0996 0.945 0.97 1.0043 1.0443 0.94531 2.3203l0.98633 1.1758-1.3926 0.82813c1.144 0.05 2.7692-0.12333 1.6582 2.0137 1.559 0.058 1.8647 1.2759 2.3867 2.2949 0.429 1.056 0.96838 2.0629 1.6094 3.0059 0.696 0.861 0.47192 1.0452-0.58008 1.2852-0.866 0.22399-1.7003 0.55156-2.4863 0.97656-2.479 1.251-4.4946 1.0689-6.4336-0.82813-1.783-1.739-3.5736-3.4954-5.1816-5.4004-1.217-1.523-2.3076-3.1409-3.2656-4.8379-1.922-3.389-3.5326-6.946-4.8086-10.627-0.912-2.501-1.8565-5.0033-2.6855-7.5293-0.718-2.015-1.329-4.0665-1.832-6.1465-0.746-3.363-1.3766-6.7571-1.9316-10.162-0.498-3.007-0.79694-6.0633-1.2109-9.1113-0.158-1.16-0.40531-2.3019-0.57031-3.4609-0.1-0.422-0.1-0.86315 0-1.2852 0.118-0.344 0.11895-0.72041 2e-3 -1.0664-0.117-0.346-0.34639-0.64466-0.65039-0.84766-0.987-0.894-2.0794-1.7218-3.1074-2.5508-1.301-1.101-2.5719-2.2525-3.8809-3.3535-1.749-1.483-3.6057-2.8908-5.2637-4.4238-2.505-2.2487-4.9769-4.5372-7.4004-6.875 7.3598-19.656 19.876-36.781 35.904-49.748zm152.86 5.6055c13.225 12.396 23.57 27.826 29.883 45.205-0.0383 0.0386-0.0767 0.0873-0.11523 0.12304-0.091 0.082-0.10546 0.33008-0.18946 0.33008-1.417 0.265-2.0474 1.7245-3.3164 2.1875-0.356 0.079-0.72194 0.11261-1.0859 0.0996-0.215 0.427-0.49413 0.81621-0.82813 1.1582-0.454 0.273-0.94498 0.47746-1.459 0.60546l-0.16602-0.24804c-0.086 0.233-0.20265 0.45234-0.34765 0.65234-0.307 0.282-0.68891 0.68164-1.0039 0.68164-0.222-0.035-0.43414-0.12105-0.61914-0.24804-0.185-0.127-0.33917-0.29624-0.45117-0.49024-0.039-0.202-0.0315-0.40937 0.0195-0.60937 0.052-0.199 0.1463-0.38497 0.2793-0.54297 0.398-0.505 0.87903-1.1423 1.707-0.57032 0.125 0.082 0.77167-0.39651 0.88867-0.60351 0.116-0.208-0.17325-0.62213-0.28125-0.95313-0.291 0.048-0.57308 0.14507-0.83008 0.28907-1.07 0.953-1.4581 0.89376-2.1621-0.36524-0.041-0.068-0.1-0.12406-0.16797-0.16406-0.475 0.48-1.0032 0.90658-1.5742 1.2676-0.282 0.141-0.77974-0.159-1.1777-0.25 0.036-0.336 0.12-0.66457 0.25-0.97657 0.356-0.52999 0.82055-1.0024 1.1856-1.4414l1.0527 0.52148 0.24024-0.16601-0.68164-1.4316c-0.412 0.395-0.88821 0.71898-1.4082 0.95898-0.608 0.033-1.2186-0.0324-1.8066-0.18945 1.011 0.927 0.837 1.2261 0 1.9551-0.838 0.729-1.6007 1.1681-2.6777 0.82812-0.24-0.074-0.59766-0.31467-0.59766-0.51367-0.014-0.305 0.0948-0.60213 0.30078-0.82813 1.127-1.06 2.2931-2.0792 3.4551-3.1152 0.58-0.521 1.1772-1.0268 1.7832-1.5488l1.416 1.6562 0.32422-0.0566c-1.045-1.11-1.6592-2.2957-0.1582-3.5957h-1.3086c-0.092 0.635-0.40009 1.2193-0.87109 1.6543-0.47 0.436-1.0758 0.69724-1.7168 0.74024 0.091 1.88-1.7236 2.0532-2.8106 2.8242-0.77899 0.537-1.6562 0.77926-1.6562 1.9473-0.357-0.133-0.60607-0.19182-0.83007-0.29882-1.26-0.614-1.3936-1.0429-0.43164-2.0039 0.546-0.595 1.1544-1.1278 1.8164-1.5898 0.529-0.223 1.0872-0.36865 1.6582-0.43165-0.025-0.65399-0.23135-1.5077 0.59765-2.0547 0.083-0.05 0.14027-0.20703 0.19727-0.20703 1.343 0.149 1.1532-1.0017 1.4512-1.7227 0.051-0.241 0.0182-0.49189-0.0918-0.71289l-1.1113-0.26172c0.107 0.064 0.20588 0.13961 0.29688 0.22461 0.185 0.173 0.33078 0.38414 0.42578 0.61914 0.191 0.521-0.9198 1.6396-1.4668 1.5566-0.156 0-0.31112-0.0337-0.45312-0.0977-0.143-0.064-0.271-0.1584-0.375-0.2754-0.105-0.116-0.18347-0.25239-0.23047-0.40039-0.047-0.149-0.0619-0.30789-0.0449-0.46289l0.01-0.0156c0.011-0.185 0.0596-0.3643 0.14063-0.5293 0.081-0.166 0.19403-0.31355 0.33203-0.43555 0.139-0.12 0.30061-0.21348 0.47461-0.27148 0.084-0.029 0.16886-0.0486 0.25586-0.0606l-1.5195-0.35937c-0.065-0.042-0.19042 0-0.10743 0-0.096 0.636-0.2977 1.2523-0.5957 1.8223-0.491 0.469-1.0512 0.86016-1.6602 1.1602-0.058 0.298-0.0566 0.75317-0.0566 1.2012-1.061 0.298-1.1862 0.44602-1.2852 1.416 0.498-0.139 0.96047-0.38289 1.3555-0.71289 0.396-0.332 0.7164-0.74399 0.9414-1.209 0.132-0.215 0.29005-0.53008 0.49805-0.58008 0.489-0.093 0.98442-0.14901 1.4824-0.16601-0.021 0.486-0.0854 0.96841-0.1914 1.4414-0.074 0.25699-0.38052 0.44767-0.60352 0.63867-0.953 0.769-1.908 1.5409-2.877 2.2949-0.274 0.215-0.6223 0.50391-0.9043 0.50391-0.386-0.088-0.72494-0.30991-0.96094-0.62891-0.074-0.082 0.15722-0.5137 0.32422-0.7207 0.246-0.213 0.4551-0.4651 0.6211-0.7461l-1.1934-0.0645c-0.307 1.332-0.73082 1.5472-1.8828 0.82617-0.521-0.371-0.99878-0.79839-1.4258-1.2754-0.473-0.481-0.67992-0.43859-0.91992 0.19141 1.019 0.687 2.0134 1.3741 3.0254 2.0371 0.431 0.274 0.93638 0.45414 1.3594 0.74414 1.782 1.235 3.6232 2.4033 5.2812 3.7793 0.831 0.856 1.5683 1.8004 2.1973 2.8164 0.348 0.455 0.68636 0.91961 1.0684 1.3496 1.434 1.582 1.4008 3.52 1.3008 5.457-0.083 1.533-0.26329 3.0655-0.40429 4.6055-1.145 0.398-0.93886 0.3902-0.75586 1.6582 0.076 1.3-0.0126 2.6058-0.26563 3.8848-0.016 0.141-0.38928 0.31447-0.61328 0.35547-0.804 0.141-0.8453 0.7204-0.5293 1.1914 0.154 0.206 0.24282 0.45394 0.25782 0.71094 0.013 0.257-0.0506 0.51047-0.1836 0.73047-0.082 0.174-0.21639 0.43264-0.15039 0.55664 0.671 1.168-0.0333 2.0102-0.61328 2.7812l-0.63867-0.41406c-0.086 0.301-0.14383 0.60892-0.17383 0.91992-8e-3 0.257 0.11719 0.5143 0.11719 0.7793 0 0.89399 0.042 1.8464 0 2.6914-0.041 0.845-0.38996 1.3674-1.377 1.0274-0.091-0.034-0.24925 0.13382-0.53125 0.29882 0.415 0 0.57208-0.149 0.83008 0 0.257 0.149 0.63867 0.4221 0.63867 0.6211-0.021 0.173-0.0836 0.33842-0.18164 0.48242-0.099 0.144-0.22981 0.2617-0.38281 0.3457-0.135 0.024-0.26209 0.0791-0.37109 0.16211-0.11 0.082-0.19782 0.19146-0.25782 0.31445-0.06 0.123-0.0899 0.25849-0.0879 0.39649 3e-3 0.137 0.0395 0.27353 0.10352 0.39453 0.44 1.358 0.3323 1.796-0.7207 2.625 0.473 1.292 0.46487 1.309-0.82813 1.707-0.688 0.215-0.4484 0.70414-0.1914 0.99414 0.522 0.555 0.348 0.96824 0 1.4902-0.116 0.247-0.32408 0.4372-0.58008 0.5332-0.256 0.094-0.53811 0.0857-0.78711-0.0273-0.621-0.174-1.0784 0.13017-1.1934 0.82617 0.812 0.737 0.81197 0.73819-0.33203 1.4922 0.373 0.348 1.3584 0.12397 1.0684 1.043-0.24 0.753-0.87814 0.6621-1.2441 0.6211-0.405-0.621-0.75177-1.0772-1.0098-1.5742-0.087-0.266-0.11222-0.54717-0.0742-0.82617v-0.82813h-0.3164c-0.092 0.529-0.18186 1.0516-0.25586 1.4316-0.896-0.364-1.7745-0.75515-2.6035-1.0352-0.158-0.058-0.47308 0.29829-0.83008 0.52929 1.287 0.181 2.4954 0.7215 3.4844 1.5625 0.989 0.84 1.7185 1.9456 2.1035 3.1836 0.041 0.125 0.13282 0.25723 0.13282 0.36523-0.264 1.068-0.57213 2.205-0.82813 3.207-0.257 1.002-0.46547 2.0119-0.73047 3.0059-0.174 0.688-0.40628 1.3659-0.61328 2.0449-0.088 0.441-0.21386 0.87497-0.38086 1.293-0.27 0.5-0.5723 0.97846-0.9043 1.4395 0.107 0.248 0.15839 0.51806 0.1504 0.78906-9e-3 0.27-0.0753 0.53534-0.19532 0.77734-0.121 0.241-0.2929 0.45305-0.5039 0.62305-0.211 0.168-0.45575 0.28852-0.71875 0.35351-1.657 0.282-3.3166 0.43168-4.9746 0.63868-0.091 0.621 0.46529 0.57167 0.90429 0.51367 0.953-0.124 1.4414 0.2558 1.4414 1.2168 0.018 0.265 0.20703 0.53812 0.20703 0.82812 0.056 0.315 0.012 0.63874-0.125 0.92773-0.107 0.124-0.59417 0.116-0.82617 0-0.127-0.074-0.2345-0.17678-0.3125-0.30078-0.077-0.125-0.12472-0.26611-0.13672-0.41211 0.108-0.63699-0.12413-0.98386-0.95312-1.3808 0.364 1.01 0.67053 1.7542 0.89453 2.5332 0.119 0.372 0.119 0.77058 0 1.1426-0.093 0.13-0.21728 0.23573-0.36328 0.30273-0.145 0.067-0.30585 0.0951-0.46485 0.0801-0.265-0.107-0.46408-0.64708-0.58008-0.83008-0.116-0.181-0.22503-0.36392-0.33203-0.54492l-0.26562 0.10742c0.132 0.571 0.22344 1.1587 0.39843 1.7207 0.215 0.771-0.26512 1.1536-0.82812 1.3106-0.149 0.042-0.54086-0.62114-0.75586-0.99414-0.14-0.286-0.24908-0.58553-0.33008-0.89453l-0.42383 0.17383 0.48047 1.0527c-0.63 0.646-0.96025 0.55372-1.6562-0.61328-0.51 0.161-1.0659 0.11886-1.5449-0.11914-0.48-0.238-0.84639-0.65225-1.0254-1.1562-0.722-1.714-0.56387-2.2207 0.82813-3.2227 0.281-0.199 0.30686-0.72036 0.50585-1.0684 0.19-0.309 0.40649-0.60295 0.64649-0.87695 0.207-0.241 0.64648-0.45706 0.64648-0.66406-0.125-1.499 0.74616-2.6334 1.2852-3.9004 1.167-2.709 2.0963-5.5148 2.7773-8.3828 0.406-1.707 0.92802-3.4211 1.416-5.0781 0.241-0.845 0.44033-1.656-0.38867-2.334-0.157-0.133-0.12347-0.4729-0.23047-0.7129-0.108-0.23999-0.21602-0.54725-0.41602-0.65624-0.547-0.322-0.77045-0.5704-0.31445-1.1504 0.083-0.099-0.1752-0.47251-0.2832-0.72851-0.895 0.538-1.5079-0.29925-2.3379-0.40625 0.083 0.173 0.117 0.43105 0.25 0.49805 0.55 0.325 1.0311 0.75557 1.4141 1.2676 0.382 0.511 0.66041 1.0929 0.81641 1.7129 0.023 0.059 0.0556 0.11421 0.0996 0.15821 1.019 1.227 1.0194 1.2254-0.34765 2.3184 0.282 0.985-0.21678 1.5329-1.5508 1.8809-0.101 0.63-9e-3 1.3502-0.31641 1.6562-0.599 0.611-1.3335 1.0708-2.1465 1.3418-0.58 0.175-0.66166 0.23349-0.47266 0.77149 0.134 0.341 0.134 0.71759 0 1.0586-0.33 0.555-1.1351 0.84542-0.82812 1.7324-0.402 0.281-0.87233 0.4521-1.3613 0.4961-0.041 0.083-0.12305 0.15804-0.12305 0.24804-0.074 0.539 0.059 1.302-0.24805 1.584-0.658 0.581-1.4249 1.0264-2.2559 1.3144-0.671 0.177-1.3607 0.27783-2.0547 0.29883l0.0488 0.38281 2.123-0.1914c0.322 0.481 0.37216 0.93479-0.58984 1.2168-0.505 0.254-0.96438 0.59114-1.3594 0.99414-0.223 1.708-0.82733 1.7231-2.4863 1.9551-2.055 0.289-3.349-0.96113-4.543-2.3281-0.457-0.513-0.74772-0.56982-1.1367 0.11718l1.0781 0.48047c0.083 0.554 0.17324 1.1255 0.24024 1.5645 0.452-0.056 0.90932-0.056 1.3613 0 0.149 0.041 0.26524 0.58048 0.24024 0.77148-0.024 0.189-0.29008 0.50586-0.45508 0.50586-0.556 0.016-1.1042-0.14258-1.6602-0.14258-0.70499-8e-3 -0.88614-0.48076-1.1191-1.0098-0.081-0.103-0.18278-0.18329-0.30078-0.23829-0.119-0.055-0.24795-0.0821-0.37695-0.0781-1.369 0.365-2.4806-0.40534-3.5996-0.90234-0.638-0.289-0.22259-0.9188 0.19141-1.2168 2.165-1.645 4.0223-3.6583 5.4883-5.9473 1.194-1.772 2.3527-3.5782 3.3887-5.4492 1.024-1.82 1.9345-3.7018 2.7285-5.6328 0.771-1.863 1.3175-3.8428 1.9395-5.7988 0.078-0.393 0.11819-0.7914 0.11719-1.1914-1.435 1.482-1.6096 3.6919-3.5586 4.6289 0.125 0.314 0.24122 0.60413 0.32422 0.82813l-1.4258 1.707c0.122 0.328 0.11256 0.69067-0.0234 1.0137-0.134 0.322-0.38703 0.58256-0.70703 0.72656-0.66 0.31-1.3477 0.55533-2.0547 0.73633 0.44 0.439 1.3761 0.81144 0.82813 1.5234-0.322 0.406-1.1764 0.40708-1.7734 0.58008 0.133 0.497 0.58105 1.2495 0.37305 1.7305-0.207 0.481-1.0618 0.68893-1.5508 0.96093 0 0.515 0.233 1.285 0 1.707-0.232 0.423-1.0188 0.51412-1.7578 0.82812l0.23438 0.76172c-0.383 0.857-0.82336 1.6874-1.3184 2.4844-0.166 0.241-0.8225 0.29822-1.1875 0.19922-1.871-0.597-3.5747-1.6279-4.9727-3.0059-0.117-0.108-0.26642-0.28125-0.35742-0.28125-1.326 0.339-1.4231-0.671-1.7051-1.5-0.034-0.082-0.15042-0.13325-0.48242-0.40625 0 0.463-0.133 0.82952 0 0.97852 0.886 1.043 0.86997 1.2171-0.33203 1.8711 0.672 0.182 1.3108 0.58094 1.9238-0.28906 0.282-0.398 1.649 0.40595 1.541 1.002-0.266 1.557 0.55713 0.76288 1.3281 0.54688l0.92773 1.6562 1.8809 0.40625c-0.108 0.347-0.12328 0.82776-0.36328 1.0098-0.416 0.203-0.86617 0.33005-1.3262 0.37305-0.083 0.365-0.20684 0.97685-0.33984 1.5898h-0.46485c-0.157-0.53099-0.30705-1.0587-0.49804-1.7207-1.583 1.531-3.2404 0.77752-4.8984 0.47852-0.117-0.016-0.31641-0.12303-0.31641-0.20703-0.215-1.159-0.94422-0.54688-1.5742-0.54688-0.895-4e-3 -1.788-0.0861-2.668-0.24805-0.672-0.107-1.319-0.31387-2.248-0.54687 3.457-4.372 6.7473-8.8462 8.8203-13.865 2.072-5.02 4.5017-9.9062 5.8867-15.24-0.23-0.036-0.4675-0.0145-0.6875 0.0625-0.22 0.078-0.41817 0.20786-0.57617 0.38086-0.157 0.172-0.26918 0.38142-0.32618 0.60742s-0.0589 0.4615-4e-3 0.6875c-0.397 0.273-0.73674 0.49828-1.0527 0.73828-0.703 0.522-1.3921 1.053-2.0801 1.582-0.365 0.298-0.66993 0.43896-0.66993 1.127 0.033 0.455-0.64753 1.068-1.1445 1.416-0.492 0.302-0.84551 0.78761-0.97851 1.3496-0.133 0.489-0.69575 0.86158-1.0938 1.2676-0.149 0.157-0.49688 0.22267-0.54688 0.38867-0.415 1.524-1.5256 2.0371-3.1016 2.0371 0.763 0.887 0.747 1.5582 0 1.7832-0.664 0.14699-1.3415 0.22628-2.0215 0.23828 0.058 0.117 0.0566 0.20703 0.0566 0.20703l1.1523 0.53906c-0.221 0.388-0.50013 0.73997-0.82813 1.043-0.336 0.182-0.70212 0.30428-1.0781 0.36328-0.18 0.585-0.43472 1.1422-0.76172 1.6582-0.614 0.704-1.5589 1.1763-2.0059 1.9453-0.771 1.326-2.1228 1.8382-3.1758 2.8242 0.083 0.539 0.29091 1.235-0.74609 1.168-0.06 7e-3 -0.11697 0.0285-0.16797 0.0625-0.05 0.032-0.0921 0.0769-0.12305 0.12891-0.039 0.145-0.11284 0.27867-0.21484 0.38867-0.101 0.111-0.22814 0.19505-0.36914 0.24805-0.141 0.051-0.29241 0.0678-0.44141 0.0488-0.151-0.018-0.29202-0.0703-0.41602-0.1543-0.166-0.075-0.46526 0.11445-0.69726 0.18945 0.091 0.19 0.15762 0.29889 0.26562 0.58789 0.108 0.29 0.35 0.71213 0.25 0.82813-0.29 0.413-0.70368 0.72648-1.1797 0.89648-0.604 0.131-0.95313 0.22199-0.82813 0.95899 7e-3 0.143-0.0229 0.28606-0.0859 0.41406-0.064 0.127-0.15934 0.23445-0.27734 0.31445-0.703 0.387-1.4871 0.60849-2.2891 0.64649-1.036-0.116-0.41481-0.87705-0.13281-1.498-0.663 0.049-1.3833 0.23183-1.7813 0.0488-0.39799-0.181-0.58812-0.85441-0.95312-1.4414-0.908-0.1-1.8255-0.0794-2.7285 0.0586-0.80199 0.31-1.5381 0.77518-2.1641 1.3672-1.02 0.945-1.8143 2.1074-2.3203 3.4024-0.175 0.34-0.76978 0.47408-1.1758 0.70508l-0.36524-0.26563c0.109-0.777 0.28911-1.5412 0.53711-2.2852 1.082-2.099 2.3969-4.07 3.9219-5.873 1.351-1.748 2.5199-3.5706 3.8379-5.3086 1.658-2.121 3.3746-4.1507 4.9746-6.2637 0.737-0.985 1.3005-2.0951 1.9805-3.1211 0.987-1.466 2.0568-2.8666 3.0098-4.3496 1.086-1.698 2.0798-3.4528 3.1328-5.1758 1.69-2.766 3.4828-5.4752 5.0918-8.2832 2.038-3.571 3.9606-7.197 5.8926-10.834 0.853-1.606 1.6079-3.2639 2.3789-4.9199 0.139-0.32 0.15582-0.67877 0.0488-1.0098-0.77899 1.234-1.5323 2.5258-2.3613 3.7188-0.392 0.668-0.96621 1.2076-1.6582 1.5566-0.878 0.307-0.8045 0.95244-0.9375 1.5234-0.182 0.737-0.13158 1.5-1.2676 1.5-0.40599-8e-3 -0.65424 0.41356-0.40624 0.97656 0.40599 0.919-0.0828 1.607-1.0938 1.748-0.35299 0.081-0.69553 0.20423-1.0195 0.36523 0.099 0.745 1.3251 0.99327 0.4961 1.6973-0.373 0.348-0.36325 1.947-1.6562 0.49805-0.106 0.428-0.14061 0.86864-0.0996 1.3066 0.084 0.171 0.13162 0.35687 0.14062 0.54687 8e-3 0.191-0.0228 0.3806-0.0918 0.5586-0.068 0.177-0.17164 0.33961-0.30664 0.4746-0.134 0.135-0.29566 0.2386-0.47266 0.3086-0.315 0.215-0.82813 0.56408-0.82813 0.83008 0.059 1.167-0.89615 1.6984-1.4102 2.4844-0.382 0.58-0.96185 1.1012-1.8398 0.0742-0.053 0.429-0.053 0.86397 0 1.293 0.405 1.309 0.19847 1.6873-1.1445 1.9453-0.092 0.016-0.158 0.10842 0 0.23242-0.116 0.663-0.20604 1.3343-0.37304 1.9883-0.016 0.042-0.62308 0.11599-0.70508 0-0.237-0.407-0.43013-0.83816-0.57813-1.2852l-0.97265 0.64648c1.335 0.439 0.73931 1.6066 1.0703 2.4356 0.041 0.107-0.45589 0.43911-0.71289 0.66211-0.18-0.224-0.34428-0.46194-0.48828-0.71094-0.05-0.225-0.0678-0.45945-0.0488-0.68945l-0.83008 0.41601c0.232 0.446 0.43011 0.8284 0.66211 1.2754-1.285 0.39799-1.2843-0.96154-2.1133-1.1445l-0.62109 0.49024v-0.26563c-0.754-0.248-1.4171-0.4969-2.2461-0.7539-0.83-0.257-1.0211-0.82725-0.83008-1.6562 0.721-3.106 1.1949-6.262 2.3809-9.252 1.119-3.056 2.8593-5.8502 5.1133-8.2012 2.031-2.029 3.9036-4.2319 6.0176-6.1699 2.372-2.162 4.9251-4.1265 7.4121-6.1465 1.658-1.35 3.2576-2.6429 4.9746-3.8359 2.461-1.73 5.0316-3.3118 7.5176-4.9688 0.364-0.274 0.77394-0.48033 1.2109-0.61133 1.143-0.257 1.5579-1.2355 2.0469-2.0645 2.38-4.116 4.7093-8.2496 7.1133-12.35 1.915-3.237 3.8377-6.3263 5.8027-9.6562 1.965-3.33 3.8788-6.7173 5.8438-10.031 0.23278-0.39603 0.47671-0.78562 0.71289-1.1797zm13.938 37.346 0.63476 0.14844c-0.109-0.065-0.22665-0.1182-0.34765-0.1582-0.096-7e-3 -0.19211-4e-3 -0.28711 0.01zm2.0684 10.441c0.16231 0.0188 0.33845 0.10125 0.5332 0.28125 0.464 0.44 0.588 0.84458 0 1.2676-0.405 0.29-0.83409 0.56183-1.3711 0.92383l2e-3 4e-3h-8e-3l6e-3 -4e-3c-0.339-0.346-0.73516-0.56824-0.78516-0.86524-0.024-0.176-3e-3 -0.35744 0.0606-0.52344 0.064-0.167 0.16969-0.31468 0.30468-0.42968 0.40425-0.19275 0.77088-0.7106 1.2578-0.6543zm2.9453 0.24805c0.34 0.223 0.6217 0.34886 0.7207 0.50586 0.023 0.105 0.0211 0.21336-6e-3 0.31836-0.027 0.10299-0.0803 0.19829-0.15234 0.27929-0.392 0.39-0.82316 0.73997-1.2852 1.043-0.119 0.042-0.24314 0.055-0.36914 0.041-0.124-0.014-0.24556-0.057-0.35156-0.125-0.158-0.133-0.2572-0.58674-0.1582-0.67774 0.481-0.488 1.0386-0.903 1.6016-1.375zm-90.102 0.19922c2.155 0.041 4.3098 0.0742 6.4648 0.19921 2.562 0.149 5.1406 0.2991 7.6856 0.6211 2.735 0.348 5.447 0.90181 8.166 1.3828 0.291 0.073 0.57013 0.18684 0.82813 0.33984 1.103 0.547 1.0438 0.62144 0.21484 1.5234-1.259 1.384-2.3784 2.8745-3.5644 4.3144-0.175 0.225-0.39808 0.39924-0.58008 0.61524-0.195 0.217-0.3713 0.44831-0.5293 0.69531-0.232 0.356-0.44043 0.73538-0.64843 1.1094-0.124 0.215-0.22285 0.43929-0.33985 0.65429-0.108 0.328-0.2799 0.63349-0.5039 0.89649-0.481 0.372-0.98808 0.63662-0.83008 1.3906 0.017 0.091-0.4397 0.30688-0.7207 0.42188-0.282 0.116-0.58872 0.18344-0.88672 0.27344 0.083 0.26199 0.19026 0.5129 0.32226 0.7539 0.356 0.604 0.0669 1.0756-0.82812 1.4316l-0.15821 1.4922-1.457-0.20703c0.19 0.72 0.37971 1.2919 0.47071 1.8789-6e-3 0.128-0.0387 0.25219-0.0957 0.36719-0.057 0.114-0.13637 0.21488-0.23437 0.29688-0.075 0.066-0.56446-0.14105-0.56446-0.24805-0.074-0.853-0.87889-1.0083-1.3379-1.4863l-0.0137-4e-3c-0.028 0.86999 0.26613 1.7188 0.82813 2.3828 0.224 0.232 0.0342 0.88698-0.0488 1.334-0.025 0.125-0.45588 0.31505-0.54688 0.24805-0.362-0.28-0.69332-0.59817-0.98632-0.95117-0.124-0.149-0.10943-0.41508-0.23243-0.58008-0.324-0.481-0.97851-0.87759-0.97851-1.3086 0.017-0.994 0.96142-1.0354 1.7324-1.1524 0.079 2e-3 0.15642 0.0104 0.23242 0.0274v-0.01l0.0137 0.0137 0.043 0.0117c-0.074-1.301-0.0305-1.3502 1.5195-1.7402v-0.75391c-0.108-0.05-0.17561-0.0488-0.22461-0.0488-0.12899 0.021-0.25046 0.0714-0.35546 0.14844-1.476 1.26-2.9443 2.534-4.4453 3.834 0.572 0.29 1.078 0.39908 1.293 0.70508 0.151 0.365 0.22199 0.75739 0.20899 1.1504l1.873 3.0488c-0.373 0.141-0.87153 0.41286-1.1445 0.38086-0.274-0.033-0.50609-0.48091-0.74609-0.75391-0.092-0.107-0.14824-0.35547-0.24024-0.35547-1.202-0.18199-0.76385-0.87725-0.50586-1.5312-1.393-0.224-1.3934-0.22562-1.4844-1.7246-0.05-0.041-0.0906-0.125-0.14063-0.125h-0.70507l-0.0899 0.88867c0.399 0.447 0.83674 0.76879 0.92774 1.0918s-0.0328 0.96994-0.25782 1.0859c-0.11599 0.067-0.24685 0.10528-0.38085 0.11328-0.135 8e-3 -0.26858-0.0173-0.39258-0.0703-0.123-0.052-0.23332-0.13333-0.32031-0.23633-0.087-0.102-0.14865-0.22251-0.18165-0.35351-0.224-0.629-0.34737-1.242-1.1094-1.459-0.141-0.041-0.25977-0.4047-0.25977-0.5957 0.13-1.071-0.70023-1.316-1.3652-1.707l-0.0117-2e-3c0.144 0.571 0.29658 1.1502 0.39258 1.5352l1.002 1.6562c-0.299 0.133-0.6709 0.44824-0.8789 0.36524-0.391-0.214-0.70072-0.54913-0.88672-0.95313-0.688-0.249-1.3836-0.57161-1.2266-1.4746 0.071-0.359 0.27718-0.67672 0.57618-0.88672 0.297-0.208 0.66248-0.29418 1.0215-0.24219l-2e-3 -6e-3 -0.0293-0.0156 0.0156-0.0332 0.0137 0.0488 0.0137 8e-3c0.016-0.196 0.016-0.39289 0-0.58789-0.017-0.182-0.0508-0.4383-0.17578-0.5293-0.089-0.021-0.18249-0.0201-0.27149 4e-3 -0.088 0.025-0.16937 0.0717-0.23437 0.13672-0.399 0.66199-0.77003 1.2996-1.707 1.2246-0.1-8e-3 -0.25685 0.2666-0.33985 0.4336-0.199 0.356-0.36426 0.75964-0.57226 1.1816h0.27344l0.91992-0.0645c-8e-3 0.34 0.10659 0.78595-0.0664 1.002-0.146 0.077-0.30866 0.11719-0.47265 0.11719-0.165 0-0.32566-0.0402-0.47266-0.11719-0.57-0.31-1.089-0.70297-1.541-1.168-0.293-0.358-0.46709-0.79877-0.49609-1.2598l-1.5918-1.3906c-0.224 0.762 1.3245 1.2673 0.39649 2.0293l0.59765 0.82812c-1.176-0.315-2.4959-0.39064-2.8359-1.8066-0.183 0.133-0.28125 0.16585-0.28125 0.21484-0.398 1.359-0.87961 1.4754-1.9746 0.39844-0.53-0.529-0.994-1.1343-1.5-1.6973-0.164-0.14-0.33849-0.26786-0.52149-0.38086 0 0.231-0.058 0.3877 0 0.4707 0.347 0.472 0.69699 1.1602 0.084 1.4082-0.44 0.175-1.1796-0.28031-1.7266-0.57031-0.274-0.182-0.39512-0.55572-0.70312-1.0117l-0.49805 1.3594c-0.687-0.373-1.3665-0.6868-1.9805-1.0918-0.397-0.266-0.68872-0.61456-1.1367-0.10156-0.073 0.061-0.15704 0.10581-0.24804 0.13281-0.092 0.026-0.18725 0.0374-0.28125 0.0254-1.086-0.19-2.1718-0.42409-3.2578-0.62109-0.72999-0.133-1.4931-0.16624-2.2051-0.36524-0.505-0.135-0.96494-0.40153-1.3359-0.76953-1.044-1.16-2.013-2.3769-3-3.5859-0.3-0.337-0.5437-0.71976-0.7207-1.1348-0.638-1.764-2.4308-2.5198-3.4258-3.9688-0.76199-1.069-1.5909-2.0287-2.4199-3.0137 0.285-0.396 0.65785-0.71932 1.0898-0.94532 0.433-0.226 0.91043-0.34746 1.3984-0.35546 0.881-0.158 1.7468-0.38188 2.5938-0.67188 1.906-0.472 3.8055-0.92778 5.7285-1.3008 2.486-0.488 4.9729-0.93541 7.4609-1.3164 1.194-0.183 2.4379-0.0904 3.6309-0.27343 3.789-0.51 7.6116-0.70689 11.432-0.58789zm86.926 2.3613c0.655 0.025 1.4416-0.27389 1.3106 0.78711-0.026 0.315-0.42344 0.82813-0.52344 0.82813-0.168-0.033-0.32394-0.10499-0.46094-0.20899-0.137-0.102-0.25108-0.23376-0.33008-0.38476-0.079-0.153-0.12386-0.32024-0.13086-0.49024-6e-3 -0.172 0.0267-0.34104 0.0937-0.49804zm3.168 0.27149c0.21964-0.0301 0.4719-0.031 0.7539 0 0.057 1.151-0.3487 1.8392-1.0957 1.7402-0.161-0.046-0.30683-0.1329-0.42383-0.2539s-0.19828-0.2706-0.23828-0.4336c-0.0188-0.60225 0.34499-0.9625 1.0039-1.0527zm-110.83 19.748c1.981 0.207 3.9448 0.48771 5.9258 0.72071 2.545 0.256 5.1478 0.42917 7.6348 0.82617 1.715 0.333 3.411 0.75753 5.082 1.2695 1.765 0.472 3.6137 0.94424 5.2637 1.4902 1.649 0.54599 3.3588 1.326 4.8848 1.873 1.524 0.547 3.0562 0.90925 4.6152 1.5312 1.558 0.62 3.0272 1.5074 4.5352 2.2774 0.329 0.135 0.64431 0.29923 0.94531 0.49023 0.306 0.199 0.72149 0.55413 0.77149 0.82813 0.049 0.27199-0.33244 0.63735-0.52344 0.94335-0.191 0.307-0.58789 0.57935-0.58789 0.90235-0.183 1.3-0.52322 1.5081-1.9492 0.91211 0.141 0.19 0.18262 0.35547 0.26562 0.35547 0.68 0.314 0.74722 0.9194 0.32422 1.3164-0.257 0.249-0.91958 0.12617-1.3926 0.0762-0.356-0.111-0.73052-0.15218-1.1035-0.11718 0.473 0.389 0.97134 0.77897 1.4023 1.168s0.20541 0.60629-0.18359 0.90429c-0.332 0.323-0.61208 0.69357-0.83008 1.1016-0.182 0.26399-0.35587 0.52034-0.54687 0.77734-0.224 0.335-0.47591 0.65136-0.75391 0.94336-0.387 0.314-0.79475 0.60709-1.2188 0.87109 0.738 1.143-0.62877 1.7804-1.1348 2.6094-0.98599 1.557-2.2144 2.9559-3.3164 4.4219-0.481 0.646-0.89578 1.3433-1.4258 1.9473-0.763 0.871-1.8993 0.57169-2.8613 0.67969-2.611 0.28999-5.2296 0.43929-7.8496 0.65429-0.083 8e-3 -0.16389 0.0821-0.46289 0.24805 0.252 0.112 0.51511 0.19505 0.78711 0.24805 1.385-0.041 2.8585-0.15625 4.1445-0.15625 1.285 0 2.5195 0.0736 3.7715 0.18164 0.589 0.083 0.76225 0.93625 0.28125 1.6562-0.159 0.189-0.26564 0.4152-0.30664 0.6582-0.043 0.244-0.0196 0.49261 0.0684 0.72461 0.124 0.381-0.33244 0.94401-0.52343 1.416 0.94599-0.05 0.97032 0.70621 1.1113 1.6582 0.066 0.456 1.003 0.8532 1.543 1.2832 0.335 0.196 0.63477 0.44909 0.88477 0.74609 0.282 0.447 0.47426 0.43766 0.94726 0.22266 0.339-0.133 0.90197 0.13203 1.168 0.20703 0.266 0.074 0.64513 0.34824 0.82813 0.24024 1.661-0.877 3.5881-1.1159 5.4141-0.66993 0.232 6e-3 0.46531-9e-3 0.69531-0.043-0.298-0.231-0.44651-0.45508-0.60351-0.45508-0.117 0.01-0.23385-0.01-0.33985-0.0586-0.107-0.048-0.20053-0.12184-0.26953-0.21484-0.069-0.094-0.11295-0.20431-0.12695-0.32031-0.014-0.115 3e-3 -0.2348 0.0469-0.3418 0-0.233 0.52208-0.51367 0.83008-0.51367 0.627-3e-3 1.254 0.0464 1.873 0.14844 1.119 0.125 2.2144 0.29025 3.3164 0.40625 0.234-0.024 0.46188-0.0922 0.67188-0.19922v-0.3711c-0.854-0.075-1.7433-0.11661-2.5723-0.22461-0.503-0.028-0.99522-0.15504-1.4492-0.37304-0.15699-0.116-0.24024-0.68014-0.15624-0.99414 0-0.133 0.52817-0.18946 0.82617-0.18946 0.978 0.059 1.9402 0.17344 2.9102 0.27344l0.0664-0.32422c-0.464-0.099-0.86997-0.17345-1.293-0.31445-0.252-0.105-0.49089-0.23749-0.71289-0.39648 0.157-0.257 0.26528-0.68791 0.48828-0.75391 0.593-0.185 1.211-0.27944 1.832-0.27344 1.291 2e-3 2.5812 0.072 3.8652 0.20703 1.649 0.232 3.2482 0.48813 4.9062 0.82813 2.603 0.547 5.1732 1.0764 7.7852 1.8144 2.611 0.736 5.2808 1.7146 7.7168 2.6016 2.438 0.885 4.8925 1.7455 7.2305 2.8555 3.453 1.512 6.7589 3.3382 9.8809 5.4512 2.296 1.657 4.6491 3.2629 6.9121 4.9199 1.533 1.101 2.9848 2.3111 4.3438 3.6191 1.865 1.83 3.6564 3.7938 5.3144 5.7988 1.343 1.565 2.5202 3.3128 3.7812 4.9688 0.104 0.11 0.22447 0.20425 0.35547 0.28125 0.663-1.797 2.7781-2.169 3.6641-4.082-0.263 0.198-0.54012 0.37711-0.82812 0.53711-0.377 0.206-0.79175 0.33124-1.2188 0.36524-0.159-8e-3 -0.33283-0.70374-0.42383-0.92774-0.092-0.223-0.13205-0.66992-0.24805-0.66992-1.36-0.232-0.9207-1.0298-0.7207-1.9648-0.473 0.331-0.95397 0.6639-1.418 1.0039-0.191 0.132-0.34006 0.36388-0.53906 0.42188-0.298 0.054-0.6013 0.0716-0.9043 0.0566 0.042-0.331-0.0412-0.74575 0.13281-0.96875 0.539-0.687 1.1778-1.2835 1.7578-1.9375 0.122-0.186 0.21062-0.39047 0.26562-0.60547-0.63 0.531-1.2696 1.0448-1.8906 1.5918-0.373 0.314-0.76296 0.7515-1.252 0.3125-0.49-0.439-0.398-0.91708 0-1.4551 0.398-0.539 0.72943-0.85402 1.4824-0.29102-1.069-1.922 1.1534-2.2525 1.5684-3.4375l-0.82812-0.54687c-0.194 0.654-0.47308 1.2822-0.83008 1.8652-0.405 0.501-0.97541 0.16485-1.4414-0.16015v2e-3l-0.0273-0.01c0.433 1.229 0.33725 1.4925-0.71875 1.8555-0.266 0.083-0.76408-8e-3 -0.83008-0.15625-0.07-0.161-0.10547-0.33476-0.10547-0.50976 0-0.174 0.0355-0.34877 0.10547-0.50977 0.131-0.288 0.36621-0.51662 0.65821-0.64062 0.282-0.12 0.59862-0.13407 0.89062-0.0391l-6e-3 -0.0156 0.0332 0.0234c-0.026-0.422-0.084-0.85347-0.084-1.6055-0.375 0.249-0.73236 0.52712-1.0684 0.82812-0.166 0.175-0.16703 0.60488-0.33203 0.67188-0.418 0.131-0.85397 0.19264-1.293 0.18164-0.057 0-0.24139-0.5383-0.15039-0.6543 0.361-0.447 0.76513-0.86037 1.2031-1.2344 0.058-0.05 0.26368 0.0662 0.42968 0.11523l-0.45508-1.4238-0.90429-0.21484c0.208 1.309-0.0984 1.581-1.6074 1.498-0.323-1.185-0.18261-1.4087 1.4004-1.9727-0.248-0.413-0.38108-0.94142-0.70508-1.1074-0.588-0.299-0.75177 0.23989-0.88477 0.71289-0.028 0.119-0.0822 0.23112-0.16015 0.32812-0.077 0.097-0.17611 0.17452-0.28711 0.22852s-0.23343 0.084-0.35743 0.084c-0.12299 1e-3 -0.24542-0.0261-0.35742-0.0781-0.135-0.101-0.24245-0.23277-0.31445-0.38477-0.073-0.151-0.10561-0.31733-0.0996-0.48633 0.075-0.71999 0.49831-1.0912 1.0703-0.82617l1.0606-2.3203-2.123 1.1348c-1e-3 0.181-0.044 0.36143-0.125 0.52343-0.082 0.163-0.19875 0.30507-0.34375 0.41407-0.145 0.11-0.31418 0.18475-0.49218 0.21875-0.179 0.035-0.36307 0.0265-0.53907-0.0215-0.19-0.075-0.42284-0.67172-0.33984-0.76172 0.477-0.474 0.98358-0.91717 1.5176-1.3262 0.015-0.391 0.14595-0.76994 0.37695-1.0859 0.233-0.315 0.55483-0.55354 0.92383-0.68554 0.796-0.256 1.005 0.44695 1.418 0.87695 0.368 0.267 0.77975 0.46308 1.2188 0.58008l-0.0918-0.1836-0.34961-1.4238c-0.455-0.415-1.2262-0.8688-1.1602-1.0918 0.244-0.678 0.6261-1.3002 1.1211-1.8242 0.188 0.014 0.36911 0.0673 0.53711 0.15234 0.168 0.085 0.3184 0.20271 0.4414 0.34571 0.077 0.265 0.21063 0.50779 0.39063 0.71679 0.18 0.208 0.40234 0.37719 0.65234 0.49219 0.481 0.258 0.70432 1.0116 1.0703 1.5996 0.81999-0.19 0.77051-0.80559 0.60351-1.5586-1.119 0.514-1.5158-0.0724-1.7148-1.0254-0.025-0.106-0.0708-0.20693-0.13477-0.29493-0.064-0.088-0.14528-0.1627-0.23828-0.2207-0.373-0.158-0.6882-0.42367-0.9082-0.76367-0.22-0.339-0.33513-0.73563-0.32813-1.1406-1.657-0.265-1.7403-0.48886-0.73633-1.8809 0.207-0.28999 0.38811-0.72854 0.53711-0.93554s0.38324-0.5037 0.61524-0.4707 0.61328 0.34729 0.61328 0.52929c-0.018 0.97 0.62119 0.7707 1.2422 0.72071-0.34-0.638-0.14957-1.6563-1.3516-1.6563-0.144-0.51199-0.0952-1.0591 0.13282-1.5391 0.228-0.48 0.62333-0.85931 1.1113-1.0703l0.40624 1.4336 0.25782 0.082c0.232-0.713 0.45729-1.3832 0.77929-2.3692-0.439 0.24-0.58128 0.32249-0.73828 0.39649l-0.48047 0.17578c-0.75499-1.243 0.45588-1.8222 0.67188-2.6992h0.27344l0.57226 1.209c0.663-0.497 0.59699-1.2354-0.16601-1.7324-0.423-0.273-0.54819-1.8309-0.11719-2.0879 0.804-0.439 0.91177 0.26513 1.1348 0.82813 0.094-0.112 0.16222-0.24181 0.19922-0.38281 0.039-0.14 0.0464-0.28765 0.0234-0.43165-0.024-0.14299-0.0792-0.27839-0.16016-0.40039-0.08-0.121-0.18654-0.22282-0.31054-0.29882-0.787-0.672-0.72897-1.3423 0.33203-2.1133 0.115 0.606 0.20764 1.1014 0.30664 1.6074l0.2168 0.14843c0.141-0.258 0.38086-0.56312 0.38086-0.82812-0.127-0.55-0.30149-1.0874-0.52149-1.6074-0.928-0.298-0.99586-0.52203-0.63086-1.582 0.215-0.638 0.25764-1.3421 0.43164-1.9961 0.05-0.207 0.3385-0.51367 0.4375-0.51367 1.07 0.315 0.91308-0.81897 0.83008-1.043-0.447-1.209 0.51411-1.9622 0.91211-2.8652 0.506-1.168 1.16-2.2295 1.75-3.3145 0.372-0.69599 0.83695-0.53721 1.252-0.0742 0.878 0.97799 1.7482 1.954 2.5352 2.998 1.361 1.773 2.6767 3.537 3.8457 5.416 0.763 1.321 1.404 2.7076 1.916 4.1426 1.297 3.174 1.9881 6.5613 2.0391 9.9883 8e-3 1.565 0.32227 3.1401 0.32227 4.7051-0.082 1.261-0.24991 2.514-0.50391 3.752-0.051 0.421-0.13042 0.83995-0.23242 1.252-0.465 1.714-0.94478 3.4208-1.4258 5.1348-0.182 0.621-0.40627 1.2343-0.57227 1.8633-0.958 3.285-2.4988 6.3723-4.5508 9.1113-2.163 3.007-4.2845 6.0638-7.0625 8.5488-2.67 2.468-5.4744 4.7872-8.3984 6.9492-2.229 1.59-4.8579 2.6104-7.2539 3.9844-2.537 1.316-5.1746 2.4235-7.8906 3.3125l-2.2793 0.82812c-0.067 0.05-0.1914 0.0508-0.1914 0.0508-1.02-0.655-1.5917 0.33012-2.2637 0.70312-0.251 0.197-0.56282 0.30664-0.88282 0.30664s-0.63081-0.10964-0.88281-0.30664l-2.1621 1.1094c-0.34-1.664 0.13141-2.2525 1.3164-2.0195 1.186 0.231 1.6583-0.63773 2.4863-0.92773l-0.0664-0.33203c-0.385 0.045-0.76095 0.13462-1.127 0.26562-0.53 0.256-0.98425 0.81849-1.6562 0.39649-0.183-0.115-0.44063-0.46269-0.39063-0.55469 0.324-0.522 0.6795-1.0258 1.0625-1.5078l-0.38281-0.4375-1.5918 1.4082c0.803 0.829 0.787 0.8763-0.125 1.6543-0.157 0.133-0.38984 0.44825-0.33984 0.53125 0.572 0.969-0.39713 1.6069-0.82813 1.7969-0.81399 0.193-1.6553 0.23881-2.4863 0.13281-0.191 0-0.49764-0.09-0.55664 0-0.787 1.044-1.89 0.75313-2.918 0.82813-0.489-1.458 1.1874-1.1169 1.4434-2.0449l-0.57227-0.70508c-0.651 0.63-1.2092 1.3517-1.6582 2.1387-0.331 0.853-1.6157 1.5396-2.3867 0.97656-0.58-0.406-0.224-0.77778 0-1.1758 0.201-0.343 0.28886-0.73876 0.25586-1.1348-0.296 0.397-0.69716 0.70095-1.1602 0.87695-0.462 0.176-0.96422 0.21523-1.4492 0.11523-0.383-0.11799-0.75614-0.26068-1.1191-0.42968 0.331-0.356 0.62877-0.95196 1.0098-1.002 0.83-0.047 1.6633-0.0143 2.4863 0.0977 0.189 8e-3 0.37701-0.0389 0.54101-0.13086 0.789-0.462 1.6204-0.84358 2.4844-1.1426l-1.4668-0.33203c-1.07 0.322-2.0392 0.66291-3.0332 0.87891-0.291 0.058-0.6641-0.26702-0.9961-0.41602 0.191-0.356 0.29966-0.86839 0.59766-1.0254 0.659-0.352 1.3695-0.59847 2.1055-0.73047 0.381-0.065 0.82094 0.23363 1.3359 0.39063l1.127-0.83008v-0.2793c-0.237-0.032-0.47589-0.032-0.71289 0-0.464 0.092-0.85397 0.29786-1.293 0.38086-1.112 0.245-2.2372 0.4315-3.3672 0.5625-0.461-0.044-0.90397-0.19626-1.293-0.44726-0.01-0.233 0.0574-0.4633 0.19141-0.6543 0.217-0.246 0.50903-0.41356 0.83203-0.47656 0.322-0.063 0.65717-0.0171 0.95117 0.1289 0.195 0.132 0.37507 0.28408 0.53907 0.45508 1.053-1.525 2.5364-1.6312 4.1934-1.1992 0.017-0.622 1.5751-0.52417 0.91211-1.4512l-2.752 1.0527c-0.091 0.05-0.2252 0.0488-0.2832 0.0488-1.037-0.655-1.865 0.17461-2.793 0.34961-0.343-7e-3 -0.6811-0.0828-0.9961-0.21875 0.109-0.314 9e-3 -0.64359 0.33204-0.93359 0.324-0.29 0.86234-0.67908 1.1523-0.58008 1.369 0.447 2.3466-0.6627 3.5566-0.7207h1.5508l1.6582-0.82813c-0.62199-0.67-1.1358-0.828-1.9648 0-0.356 0.39-1.2766 0.35547-1.8066 0.48047-0.531 0.124-1.1032 0.12305-1.6582 0.12305-0.32 0.06-0.64375 0.0964-0.96875 0.10742-0.68-0.04-0.90463-0.54717-0.51563-1.0762 0.39-0.531 0.88621-0.97008 1.6582-0.58008 0.481 0.24 0.82154 0.0752 1.3105-0.17383 0.936-0.36 1.9008-0.63712 2.8848-0.82812 0.926-0.25 1.8145-0.61957 2.6445-1.1016-0.389-0.05-0.78092-0.05-1.1699 0-1.409 0.34799-2.7769 0.91126-4.2949 0.57226-0.174-0.033-0.40391 0.33789-0.62891 0.33789-0.572 0.108-1.1192 0.10938-1.6582 0.10938 0.04-0.365-0.13999-0.90155 0.041-1.0606 0.416-0.314 0.89435-0.5363 1.4024-0.6543 0.68799-0.199 1.3997-0.30647 2.0957-0.48047 0.058-8e-3 0.084-0.15628 0.25-0.48828-0.672 0.092-1.186 0.21485-1.709 0.21485-0.487 0.055-0.97959-0.0152-1.4336-0.19922-0.191-0.1-0.10742-0.73736-0.10742-1.0684l2.8594-0.6875-0.0742-0.29688h-2.4375c-0.381-1.011 0.50684-1.5749 0.71484-2.0059 0-1.507 0.041-2.6842 0-3.9922-0.042-1.309-0.14199-2.617-0.20899-3.918l-0.25585-0.0898-1.8984 2.2441 1.3594-0.49609c0.034 0.381 0.21327 0.82758 0.0723 1.1426-0.447 0.994-1.011 1.9368-1.5 2.8398h0.084l0.82813-0.0898c-0.032 0.34 0.0678 0.79533-0.11524 0.98633-1.766 1.855-3.4727 3.81-5.8027 5.043-0.144 0.074-0.27649 0.16543-0.39649 0.27343-0.137 0.165-0.25923 0.34325-0.36523 0.53125 0.364-0.041 0.72055-0.12962 1.0606-0.26562 1.144-0.738 2.2532-1.5327 3.4062-2.2617 0.297-0.094 0.60892-0.12942 0.91992-0.10742-0.05 0.348 0.0418 0.81839-0.15625 1.0254-0.581 0.63-1.2688 1.1604-2.0078 1.8144l0.39062 0.0586 0.98633 0.0918c-0.071 0.355-0.20449 0.69296-0.39649 1.002-0.59699 0.60399-1.2698 1.1261-2.0488 1.7891l0.97851 0.28906c-0.273 1.475-1.6583 1.9726-2.4863 2.9336l0.82813 0.71094-5.0723 3.8027 2.0957-0.57227 0.23437 0.44727c-0.434 0.432-0.90615 0.82296-1.4102 1.168-1.792 1.011-3.6167 1.9626-5.6387 3.0566l1.2617 0.0918c-0.042 0.704-1.6174 1.7716-3.4414 2.6836-0.29 0.38-0.49672 0.91837-0.88672 1.1094-2.395 1.201-4.7913 2.3935-7.2793 3.4375-1.431 0.528-2.893 0.96922-4.377 1.3242-0.123 0-0.31467 0.067-0.38867 0-0.846-0.728-1.4919 0.0262-2.2129 0.2832-0.718 0.295-1.4627 0.51892-2.2227 0.66992-0.373 0.058-0.81213-0.27304-1.0781-0.37304-1.31 0.265-2.5529 0.52172-3.7969 0.76172-0.048 0-0.0956-0.0102-0.14063-0.0332-0.044-0.021-0.0852-0.0508-0.11523-0.0898-0.63-0.928-1.2267-0.45661-1.9727-0.0996-0.457 0.207-1.1262-0.0674-1.6582-0.10938-0.53-0.04-1.3594 0.49711-1.3594-0.46289-8e-3 -0.323 0.72876-0.82756 1.2188-0.97656 0.76499-0.17 1.5461-0.26606 2.3301-0.28906 0.439-1.64 0.50596-1.6909 2.877-2.0059-0.241-0.174-0.40746-0.4043-0.56446-0.4043-0.883 1e-3 -1.7629 0.0869-2.6289 0.25586-0.853 0.215-1.3926 0.13231-1.3926-0.55469-1.268-0.049-2.5289-0.0832-3.7559-0.1582-0.182-0.016-0.48809-0.15023-0.49609-0.36523s0.13225-0.60353 0.28125-0.64453c0.77899-0.215 1.5587-0.34105 2.3887-0.49805l-0.2168-0.66992c-1.012 0.074-1.9794 0.18945-2.9414 0.18945-0.39-0.017-0.77211-0.38089-1.1621-0.58789 0.432-0.34 0.86277-0.96875 1.2598-0.96875 0.891 0.129 1.7645 0.3605 2.6035 0.6875 0.216 0.058 0.42404 0.18945 0.62304 0.18945 0.638-0.083 1.2705-0.1967 1.8965-0.3457 0.21-0.046 0.39825-0.16403 0.53125-0.33203 0.018-0.09 9e-3 -0.18353-0.0215-0.26953-0.03-0.085-0.0823-0.15975-0.15234-0.21875-0.175-0.067-0.40628 0.0664-0.61328 0.0664-0.953 0.133-1.9081 0.31329-2.8691 0.36328-0.207 0.017-0.43913-0.45509-0.70313-0.74609-0.93 0-1.9566 0.076-2.9766 0-0.265-0.016-0.51548-0.40414-0.77148-0.61914 0.224-0.265 0.3975-0.63986 0.6875-0.75586 0.441-0.119 0.89075-0.20105 1.3438-0.24805 0.107-0.023 0.20687-0.0669 0.29687-0.1289 0.09-0.063 0.16756-0.14138 0.22656-0.23438 0.103-0.277 0.25989-0.52914 0.46289-0.74414 0.202-0.215 0.44585-0.38881 0.71485-0.50781 0.271-0.121 0.56142-0.18636 0.85742-0.19336 0.295-7e-3 0.59023 0.0453 0.86523 0.15234l0.29883 0.0664c-0.639-0.927-0.63937-0.92773-1.7344-0.92773-0.293 0.05-0.59372 0.05-0.88672 0-0.335-0.158-0.64855-0.35589-0.93555-0.58789 0.281-0.274 0.53013-0.78711 0.82813-0.78711 0.895-0.115 1.8989-0.35707 2.4219 0.71093l2.1543-0.71093-0.082-0.71289-2.4863 0.64648c-0.415-0.737-0.57158-1.1684 0.10742-1.5664 1.069-0.612 1.7648-0.47912 2.5938 0.54688 1.633-1.126 3.5885-0.13213 5.3125-0.82813-1.458-0.083-2.9154-0.11443-4.3574-0.27343-0.46-0.147-0.88953-0.37393-1.2695-0.66993 0.273-0.348 0.47212-0.82834 0.82812-1.0273 0.441-0.207 0.92316-0.30606 1.4102-0.28906h3.416v-0.2832l-3.1523-0.58008-0.0644-0.51953c0.582-0.321 1.196-0.5823 1.832-0.7793 0.593-0.05 1.1882-0.05 1.7812 0 0.283-0.047 0.56012-0.12166 0.82812-0.22266v-0.33203c-0.403 0.021-0.80498 0.021-1.209 0-0.241-0.033-0.6133-0.0503-0.6543-0.28125-0.041-0.232 0.0819-0.67228 0.25586-0.73828 1.293-0.505 1.9493-1.6056 2.6543-2.6836 0.138-0.184 0.3365-0.31524 0.5625-0.36524 0.663-0.149 0.97773-0.26378 0.92773-1.1758-0.034-0.514 1.0692-1.0841 1.7402-1.7051-0.497-0.729 0.34108-1.2846 0.83008-1.5586 1.153-0.638 1.3923-1.928 2.2793-2.707 0.756-0.633 1.2627-1.5143 1.4277-2.4863 0.014-0.276 0.014-0.55213 0-0.82813-0.739 0.853-1.3442 1.4821-1.8672 2.1621-1.136 1.597-2.4566 3.0538-3.9356 4.3398-1.667 1.359-3.1272 2.9922-4.7852 4.3242-1.956 1.568-4.0086 3.0102-6.1426 4.3242-3.482 2.112-7.0112 4.1495-10.617 6.0215-2.427 1.185-4.9179 2.2317-7.4609 3.1387-2.612 0.994-5.2322 1.9632-7.9101 2.7422-2.532 0.731-5.106 1.3039-7.709 1.7129-3.067 0.481-6.1678 0.73911-9.2598 1.0371-1.965 0.182-3.8704 0.37109-5.9024 0.37109-2.03 0-4.0615-0.22265-6.1016-0.34765-1.252-0.074-2.5033-0.0735-3.7383-0.23047-2.147-0.266-4.194-0.60336-6.291-0.94336-2.952-0.252-5.8329-1.0365-8.5059-2.3125-2.181-0.87-4.4346-1.5726-6.5156-2.6406-3.092-1.462-6.0121-3.2641-8.7051-5.3691-2.123-1.756-4.2846-3.4294-6.2656-5.3184-2.664-2.574-5.0038-5.4625-6.9648-8.6035-2.083-3.375-3.6216-7.0572-4.5586-10.91-0.539-2.113-0.08398-4.174-0.08398-6.252 0.059-1.437 0.26528-2.8648 0.61328-4.2598 0.364-1.614 0.82858-3.2047 1.3926-4.7617 0.779-2.078 1.7413-4.1337 2.5703-6.2207 1.434-3.62 3.8973-6.6675 5.9453-9.9394 1.179-1.659 2.4983-3.2135 3.9453-4.6465 0.514-0.563 0.94398-0.37315 1.209 0.33985 1.061 2.957 2.198 5.8903 3.209 8.8633 0.282 0.829-0.0165 1.8624 0.9375 2.4844 0.124 0.09 0 0.61294 0 0.96094 1.003 0.662 1.0442 0.8191 0.40625 1.8711 0.246 0.025 0.48317 0.0988 0.70117 0.2168 0.217 0.119 0.4075 0.2777 0.5625 0.4707 0.154 0.193 0.26794 0.41435 0.33594 0.65235 0.067 0.237 0.08664 0.48547 0.05664 0.73047-0.017 0.141 0.26545 0.33222 0.43945 0.44922 0.305 0.159 0.54025 0.427 0.65625 0.75 0.117 0.323 0.10761 0.67909-0.02539 0.99609l-1.5586 0.13281v0.25586h0.96094c0.307 0 0.72211-0.016 0.91211 0 0.191 0.017 0.46388 0.0344 0.54688 0.15039 0.564 0.829 1.0856 1.6574 1.5996 2.4844 0.299 0.473 0.56508 0.96903 0.83008 1.457l0.53906 1.002c-0.34 0.175-0.67053 0.36663-1.0195 0.51563-0.271 0.085-0.54812 0.15022-0.82812 0.19922l0.54688 0.82617c0.712-0.139 1.4313-0.24069 2.1543-0.30469 0.638-0.025 0.83647 0.4298 0.48047 0.9668-0.146 0.198-0.33378 0.36056-0.55078 0.47656-0.216 0.116-0.45617 0.18136-0.70117 0.19336s-0.48784-0.031-0.71484-0.125c-0.226-0.094-0.42875-0.23792-0.59375-0.41992-0.389 0.257-0.83775 0.49029-1.2188 0.77929-0.15 0.117-0.19902 0.36369-0.29102 0.55469 0.224 0.058 0.47288 0.20039 0.67188 0.15039 0.365-0.109 0.68755-0.41642 1.0605-0.48242 0.375-8e-3 0.74933 0.0388 1.1113 0.13477-0.031 0.32799-0.09164 0.65175-0.18164 0.96874-0.149 0.419-0.44217 0.7721-0.82617 0.9961-0.384 0.225-0.83348 0.30451-1.2715 0.22851h-1.7324v0.35743c0.272 0.069 0.54812 0.12125 0.82812 0.15625 0.596 0.042 1.2098 0.0168 1.7988 0.0918 0.182 0.024 0.48047 0.37969 0.48047 0.42969-0.19 0.331-0.38831 0.75353-0.69531 0.89453-0.524 0.239-1.0852 0.38464-1.6582 0.43164-1.882 0.173-3.7547 0.30725-5.6367 0.40625-0.92 0.05-1.8493 0-2.7773 0v0.26367c0.569 0.136 1.1494 0.2284 1.7324 0.2754 2.015 0.05 4.1122 0.14899 6.1602 0 2.246-0.141 4.4837-0.53208 6.7227-0.83008 1.774-0.24 3.5641-0.43833 5.3301-0.73633 3.374-0.555 6.6899-1.1341 10.006-1.7891 1.599-0.315 3.1576-0.795 4.7246-1.25 2.835-0.829 5.7105-1.5501 8.4805-2.5781 3.614-1.342 7.1784-2.8559 10.693-4.4629 2.602-1.199 5.1396-2.5322 7.6016-3.9922 2.513-1.483 4.9837-3.0829 7.3457-4.7969 2.315-1.657 4.5289-3.4492 6.6309-5.3672 2.048-1.906 3.9217-4.0253 5.8027-6.1133 1.393-1.491 2.6859-3.1463 3.8789-4.6543 1.194-1.507 2.3308-3.0641 3.4668-4.6211 0.102-0.225 0.16364-0.46689 0.18164-0.71289l-0.29687-0.15039c-1.186 1.383-2.3302 2.8186-3.5742 4.1426-0.878 0.91999-1.8986 1.7472-2.8516 2.5762-0.116 0.107-0.33203 0.19926-0.33203 0.32226-0.05 0.362-0.23548 0.68807-0.52148 0.91407s-0.64872 0.32992-1.0117 0.29492c-0.141 0-0.33106 0.20742-0.41406 0.35742-0.515 0.985-0.51575 0.98483-1.3438 1.4238l-1.8066 1.7734c-0.556-0.953-0.72135-1.5413 0.22265-1.9883 0.307-0.158 0.49924-0.54612 0.74024-0.82812l-0.20118-0.29883-1.8476 0.82813 0.125-1.3418c-0.191-3e-3 -0.38327-0.0198-0.57227-0.0488-0.323-0.074-0.84611-0.11683-0.91211-0.29883-0.057-0.121-0.0898-0.25076-0.0937-0.38476-5e-3 -0.133 0.0194-0.26568 0.0684-0.38867 0.05-0.125 0.1228-0.23804 0.2168-0.33204 0.094-0.095 0.20703-0.17075 0.33203-0.21875l1.1191-0.48047c-0.241-0.28999-0.45762-0.43985-0.51562-0.63085-0.055-0.297-0.0784-0.59935-0.0664-0.90235 0.257 0.05 0.54808 0.0488 0.83008 0.0488l0.96094 0.0684c-0.034-0.258 0.0496-0.63908-0.10743-0.83008-0.87899-1.06-0.87978-1.068-0.0508-1.541 0.191-0.845 0.23266-1.8475 0.47266-1.8965 0.613-0.141 1.2778-0.67726 2.0078-0.0723 0.603 0.436 1.3011 0.71917 2.0371 0.82617l-2.7109-1.7148c-0.406 0.058-1.1254 0.2746-1.3164 0.0586-0.122-0.22-0.20052-0.46289-0.22852-0.71289-0.026-0.251-3e-3 -0.50214 0.0703-0.74414 0.241-0.994 1.1434-0.56446 2.0234-0.68946-0.523-0.38-0.85433-0.77717-1.2363-0.82617-1.119-0.157-1.3015-0.72025-0.9375-1.6562 0.043-0.157 0.0664-0.31942 0.0684-0.48242l1.6562 0.20703c-0.787-0.845-2.5107-0.52134-2.2207-2.2773-1.186-0.373-0.98617-1.6564-1.4512-2.4844-0.486-0.978-0.904-1.9874-1.25-3.0234-0.092-0.273-0.149-0.71976 0-0.88476 0.125-0.124 0.2745-0.2202 0.4375-0.2832 0.164-0.063 0.34062-0.091 0.51562-0.082zm54.322 21.006c0.744 0.081 1.1414 0.55719 1.5664 1.3672l0.0156-2e-3v0.0351l-0.0156-0.0332c-0.55699 0.065-1.1178 0.0669-1.6738 6e-3 -0.282-0.074-0.49066-0.46212-0.72266-0.70312 0.307-0.24 0.59008-0.66993 0.83008-0.66993zm-2.9844 3.2051c0.521 1.243 1.4508 1.1346 2.7188 1.0606-0.34 0.663-0.55609 1.3658-0.74609 1.3828-0.483-0.092-0.92978-0.30791-1.3008-0.62891l-1.709-0.40624zm-1.832 2.3184 0.83008 0.66992-0.83008 0.91993v-0.0332c-0.258-0.364-0.57226-0.61956-0.57226-0.72656 0.066-0.332 0.36426-0.56508 0.57226-0.83008zm1.6914 0.87891c0.46-0.025 0.92281-0.025 1.3828 0l-0.0488 0.6875-1.4336-0.0664c0.033-0.215 0.0496-0.62109 0.0996-0.62109zm-3.709 1.0605c0.111-0.015 0.22518 2e-3 0.32618 0.0488 0.322 0.125 0.62811 0.28647 0.91211 0.48047l-0.97852 1.043v-0.0332c-0.356-0.389-0.71367-0.60255-0.76367-0.81055-0.025-0.109-0.0194-0.22213 0.0156-0.32812 0.037-0.105 0.1015-0.19854 0.1875-0.26954s0.19078-0.11586 0.30078-0.13086zm2.5645 0.67774c0.331 0.042 0.62073 0.40767 0.92773 0.63867l-0.82812 0.86914-0.98633-1.002c0.299-0.182 0.55472-0.54686 0.88672-0.50586zm-4.1152 1.2676c0.42652-0.0517 0.79782 0.21061 1.1016 0.75586l0.0137-0.01v0.0332l-0.0137-0.0234c-0.577 0.442-1.1523 0.74087-1.7363 0.29687-0.115-0.067-2e-3 -0.77853 0.18945-0.89453 0.154-0.088 0.30314-0.14097 0.44531-0.1582zm2.2832 0.52929c0.099-0.049 0.54706 0.5313 0.53906 0.7793-8e-3 0.249-0.38267 0.50594-0.76367 0.96094v-0.0332c-0.374-0.51399-0.80333-0.95353-0.73633-1.0195 0.247-0.317 0.57894-0.5565 0.96094-0.6875zm-15.178 0.97852c0.36 1e-3 0.70833 0.12647 0.98633 0.35547 0.803 0.837 1.9961 1.4508 1.9961 2.8008 0.021 0.236-5e-3 0.47517-0.0781 0.70117-0.073 0.226-0.18875 0.43524-0.34375 0.61524-1.309 1.051-2.6859 2.0204-4.0879 2.9394-0.463 0.222-0.95685 0.37322-1.4648 0.44922v-0.0176c-0.387-0.035-0.76165-0.15466-1.0976-0.34766-0.337-0.192-0.62852-0.45353-0.85352-0.76953-0.226-0.314-0.38108-0.67469-0.45508-1.0547-0.075-0.381-0.0646-0.77239 0.0254-1.1504 0.29199-0.893 0.70456-1.7434 1.2266-2.5254 0.426-0.696 1.0443-1.2534 1.7793-1.6074 0.736-0.354 1.5572-0.48867 2.3672-0.38867zm46.984 6.7012c0.191 0.174 0.54882 0.4961 0.54882 0.4961-0.20899 0.31299-0.44507 0.6079-0.70507 0.8789l-0.43164-0.30664zm1.0781 0.8125 1.4258 0.69336c-0.248 0.191-0.4799 0.53906-0.7539 0.53906-0.672 0.108-0.94588-0.26342-0.67188-1.2324zm-6.8379 0.41211c0.066-0.032 0.35588 0.30766 0.54688 0.47266l-0.9043 0.70507-0.43164-0.46289c0.237-0.266 0.50106-0.50584 0.78906-0.71484zm3.8086 0.39844c0.25888-3e-3 0.53471 0.14094 0.78321 0.27344 0.055 0.12 0.084 0.25086 0.084 0.38085 0 0.132-0.029 0.26086-0.084 0.38086-0.58 0.439-1.1024 0.24933-1.4844-0.38867l0.0176-0.0332c0.182-0.46 0.42472-0.61016 0.68359-0.61328zm1.123 1.0195h1.5176c-0.084 0.347-0.0418 0.83595-0.25781 1.002-0.771 0.62-0.87799-0.3309-1.334-0.5039zm16.805 2.584c0.257 0.067 0.62969 0.63635 0.55469 0.77735-0.401 0.685-0.85357 1.3381-1.3516 1.9551v-8e-3c-0.34-0.547-0.65606-0.81236-0.66406-1.0684-0.024-0.829 0.86294-1.8212 1.4609-1.6562zm-2.1719 3.0566c0.17313 2e-3 0.3633 0.0254 0.5293 0.0254-0.018 0.29799 0.0826 0.67795-0.0664 0.87695-0.484 0.545-0.99702 1.0618-1.541 1.5488v-8e-3c-0.173-0.513-0.43922-0.84395-0.32422-1.002 0.251-0.497 0.58152-0.9518 0.97852-1.3418 0.0955-0.0835 0.2507-0.10173 0.42382-0.0996zm-1.9668 2.1367c0.191-0.1 0.54808 0.13085 0.83008 0.21485l-0.26172 0.63867 0.0371-0.0254-0.041 0.0332 4e-3 -8e-3c-0.371 0.247-0.77146 0.44751-1.1895 0.60351-0.141 0.041-0.39865-0.33948-0.59765-0.52148 0.372-0.354 0.78075-0.66755 1.2188-0.93555zm-152.65 1.6895c0.099 0.091 0.49727 0.30551 0.57227 0.60351 0.14 0.58-0.99522 1.4752-1.8242 1.4082-0.207-0.016-0.55664-0.42855-0.55664-0.68555-0.074-0.654 0.7306-1.3184 1.8086-1.3184zm2.5684 2.2285c0.249 0 0.49828 0.24791 0.73828 0.37891v0.34961c-0.271 0.18-0.55552 0.33484-0.85352 0.46484-0.456 0.154-0.9282 0.25106-1.4082 0.28906-0.368 0.051-0.74294 2e-3 -1.0859-0.14062-0.116-0.067-0.23319-0.63849-0.11719-0.77149 0.252-0.219 0.56353-0.35748 0.89453-0.39648 0.604-0.116 1.218-0.17383 1.832-0.17383zm-4.252 0.48047c0.13-0.09 0.49441 0.39059 0.94141 0.80859l0.01953-0.0137v0.0332l-0.01953-0.0195c-0.446 0.314-0.93708 0.56143-1.4551 0.73243-0.265 0.033-0.56313-0.42307-0.82813-0.66407 0.411-0.345 0.8608-0.63795 1.3418-0.87695zm165.56 9.6992c0.225-0.074 0.63989 0.38052 0.96289 0.60352l-1.1348 1.293v-0.0156c-0.407-0.448-0.88965-0.88069-0.84765-0.92969 0.237-0.412 0.59253-0.74217 1.0195-0.95117zm1.584 1.5234c0.357 0.894 0.21635 1.4412-0.47265 1.6562-0.396 0.047-0.79655 0.0236-1.1856-0.0664l-0.0742-0.57031zm-47.119 22.555c0.191 0.29 0.54883 0.58015 0.54883 0.86914 8e-3 1.028-0.90456 0.67135-1.6016 1.0274l-0.60547-0.67969zm-46.58 1.9219c0.52199 0.042 1.3516-0.0503 1.3516 0.7207 9e-3 0.364-0.62916 0.72039-1.1602 1.2754v-0.01c-0.596-0.588-1.2768-0.93505-1.3438-1.373-0.115-0.746 0.62935-0.65428 1.1524-0.61328zm45.246 0.10742c0.365 0.885 0.58798 1.3823-0.16602 1.7383-0.556 0.232-1.294 0.0915-1.252-0.35547 0.042-0.447 0.82997-0.81861 1.418-1.3496zm-48.811 1.3516c0.654-7e-3 1.3062 0.0471 1.9492 0.16407 0.273 0.066 0.4393 0.53912 0.6543 0.82812-0.257 0.182-0.49767 0.5293-0.76367 0.5293-1.458 0.141-1.8398-0.11368-1.8398-1.5137zm-1.5039 1.291c0.18687-0.0255 0.37845-0.0168 0.56445 0.0312 0.372 0.097 0.69262 0.33506 0.89062 0.66406 0.29 0.455 0.50654 0.51424 1.0195 0.36524 0.451-0.091 0.91824-0.0807 1.3652 0.0293 0.447 0.111 0.8637 0.31743 1.2207 0.60742 0.157 0.109 0.20686 0.36488 0.38086 0.67188l-2.8008 0.34766c0.398 0.232 0.68713 0.51307 0.82813 0.45507 1.077-0.464 1.931 0.37227 2.918 0.44727 0.174 8e-3 0.39066 0.29886 0.47266 0.50586 0.034 0.084-0.23987 0.36487-0.42187 0.42187-0.575 0.256-1.211 0.34386-1.834 0.25586s-1.2094-0.3489-1.6914-0.7539c-0.34199-0.173-0.72637-0.24222-1.1094-0.19922-0.418 0.053-0.84461-0.0181-1.2246-0.20313-0.379-0.186-0.69706-0.47589-0.91406-0.83789v-0.0176c0.069-0.132 0.16525-0.25071 0.28125-0.34571 0.117-0.095 0.25148-0.16412 0.39648-0.20312 0.145-0.041 0.29732-0.0494 0.44531-0.0274 0.149 0.022 0.28997 0.0733 0.41797 0.1543 0.255 0.049 0.51649 0.049 0.77149 0 0-0.216 0.199-0.51367 0-0.63867-0.199-0.123-0.50491-0.0491-0.75391-0.12305-0.654-0.216-1.3014-0.44847-1.9394-0.73047-0.042-0.016 0.0326-0.62931 0.18164-0.69531 0.1665-0.096 0.34828-0.15614 0.53516-0.18164zm-2.498 1.2422c0.554 0.282 1.5395-0.12347 1.6055 0.89453 0 0.199-0.42313 0.43012-0.82813 0.82812l-1.3672-1.1582c0.199-0.199 0.50585-0.56445 0.58985-0.56445zm-3.043 0.96875c0.637 0.129 1.2649 0.29986 1.8809 0.50586 0.114 0.085 0.20372 0.19617 0.26172 0.32617 0.058 0.129 0.0823 0.27111 0.0703 0.41211-0.025 0.157-0.43164 0.35547-0.68164 0.35547-0.981 0.173-1.5272-0.32761-1.5312-1.5996zm3.7637 1.4238c0.713 0.042 1.5899 0.0423 1.7559 0.98633 0.041 0.207-0.5297 0.5135-0.7207 0.6875v-8e-3c-0.894-0.149-1.6824-0.14934-1.7324-1.0273-0.016-0.215 0.46526-0.63868 0.69726-0.63868zm-5.8027 0.0352c0.228-0.033 0.5432 0.239 1.0332 0.5l0.0273-0.0215v0.0332l-0.0273-0.0117c-0.416 0.325-0.66475 0.65039-0.84375 0.65039-0.324-0.126-0.62472-0.30906-0.88672-0.53906 0.231-0.215 0.46427-0.57933 0.69727-0.61133zm9.1504 0.92383c0.49212-0.0124 1.0001 0.18184 1.4766 0.27734 0.381 0.074 0.69692 0.43774 1.0449 0.67774-0.348 0.265-0.68829 0.74609-1.0293 0.74609-1.01 0.034-2.008-0.22709-2.875-0.74609 0.414-0.725 0.89068-0.94271 1.3828-0.95508zm-5.9199 0.4082c0.441 0.11 0.86572 0.27805 1.2617 0.49805-0.12399 0.274-0.24062 0.77734-0.39062 0.77734-0.482 0.01-0.96183-0.0524-1.4238-0.18945-0.158-0.041-0.25922-0.28167-0.57422-0.63867 0.473-0.199 0.81296-0.47227 1.127-0.44727zm11.543 0.5625c0.78024 0.0641 1.473 0.33688 1.9375 0.79688l8e-3 -0.0176c0.516-0.33 1.1372-0.4537 1.7402-0.3457 0.602 0.107 1.1418 0.43778 1.5098 0.92578-0.516 0.415-1.1534 0.65183-1.8164 0.67383-0.663 0.02-1.3135-0.17465-1.8555-0.55664-0.224-0.141-0.58872-0.0518-0.88672-0.0938-0.854-0.099-1.7247-0.17307-2.5527-0.33007-0.2-0.042-0.34983-0.37271-0.54883-0.59571 0.8165-0.3765 1.6846-0.52115 2.4648-0.45703zm-8.2188 0.49805c0.492 0.084 0.97532 0.21286 1.4453 0.38086 0.215 0.1 0.48868 0.50548 0.42968 0.64648-0.12399 0.282-0.48068 0.67969-0.67968 0.67969-0.691-0.128-1.3659-0.34086-2.0059-0.63086-0.15-0.066-0.2168-0.64648-0.2168-0.64648 0.333-0.166 0.67735-0.31069 1.0273-0.42969zm3.5664 1.1445c0.718-0.095 1.4451-0.095 2.1641 0 0.372 0.058 0.67097 0.45491 1.043 0.62891 0.288 0.136 0.60388 0.20226 0.92188 0.19726 0.704-0.017 1.4073-0.15625 2.1113-0.15625 0.119 0.018 0.23203 0.059 0.33203 0.12305 0.099 0.065 0.186 0.15 0.25 0.25 0.058 0.108-0.12463 0.40492-0.26563 0.54492-0.347 0.369-0.79797 0.62156-1.293 0.72656s-1.0106 0.0583-1.4766-0.13672c-0.257-0.091-0.43167-0.43906-0.51367-0.53906v-0.0156c-1.251-0.091-2.3122-0.12444-3.3652-0.27344-0.145-0.066-0.27023-0.16692-0.36523-0.29492-0.094-0.127-0.15483-0.27855-0.17383-0.43555 0.042-0.149 0.12242-0.28358 0.23242-0.39258 0.111-0.109 0.24844-0.18656 0.39844-0.22656z" color="#000000" fill="#000" style="-inkscape-stroke:none"/>
</svg>
