<svg version="1.1" viewBox="0 0 743.42 127" xml:space="preserve" xmlns="http://www.w3.org/2000/svg"><g transform="translate(-31.531 -69.332)"><g transform="translate(2.9195,-6.2131)"><path d="m88.143 200.56v-1.9844h-3.9688v-3.9688h-3.9688v-40.481h-4.7625v-3.175h-38.894v-3.9688h-3.9688v-3.9688h-3.9688v-59.531h3.9688v-3.9688h3.9688v-3.9688h111.13v3.9688h3.9688v3.9688h3.9688v63.5h-3.9688v3.9688h-3.9688v43.656h-3.9688v3.9688h-4.7625v3.9688h-50.8z" fill="#c1c1c1"/><path d="m88.143 200.56v-1.9844h-3.9688v-3.9688h-3.9688v-40.481h-4.7625v-3.175h-38.894v-3.9688h-3.9688v-3.9688h-3.9688v-59.531h3.9688v-3.9688h3.9688v-3.9688h111.13v3.9688h3.9688v3.9688h3.9688v63.5h-3.9688v3.9688h-3.9688v43.656h-3.9688v3.9688h-4.7625v3.9688h-50.8zm50.8-3.9688v-1.9844h4.7625v-43.656h3.9688v-3.9688h3.9688v-63.5h-3.9688v-3.9688h-111.13v3.9688h-3.9688v59.531h3.9688v3.9688h38.894v3.9688h4.7625v3.175h3.9688v40.481h3.9688v3.9688h50.8zm-42.863-25.797v-19.844h3.9688v39.688h-3.9688zm15.875 0v-19.844h3.9688v39.688h-3.9688zm15.875 0v-19.844h3.9688v39.688h-3.9688zm-31.75-29.766v-1.9844h27.781v-3.9688h-3.9688v-3.9688h3.9688v3.9688h3.9688v3.9688h3.9688v3.9688h-35.719zm-31.75-32.147v-18.256h31.75v36.512h-31.75zm55.563 0v-18.256h19.05v36.512h-19.05z"/></g><path d="m275.41 132.5h-22.933v44.812h-31.632v-44.812h-22.933v-19.77h22.933v-19.77h31.632v19.77h22.933zm71.485 46.789q-32.027 0-47.316-8.0398t-15.289-26.096 15.289-26.228q15.421-8.1716 47.316-8.1716 31.632 0 46.789 8.1716 15.289 8.1716 15.289 26.228t-15.157 26.096-46.921 8.0398zm0-19.77q14.63 0 22.142-3.5586 7.6444-3.6904 7.6444-10.808t-7.6444-10.808q-7.5126-3.8222-22.142-3.8222-14.762 0-22.538 3.8222-7.7762 3.6904-7.7762 10.808t7.6444 10.808q7.7762 3.5586 22.67 3.5586zm239.79-48.766q17.793 0 29.128 8.1716 11.467 8.0398 11.467 27.151v31.237h-31.632v-27.283q0-6.7218-2.2406-10.676t-7.3808-5.6674q-5.1402-1.8452-14.103-1.8452-9.7532 0-17.925 2.636-8.0398 2.5042-13.575 5.5356 0.3954 2.7678 0.3954 6.0628v31.237h-31.632v-27.283q0-6.7218-2.2406-10.676t-7.3808-5.6674q-5.1402-1.8452-14.103-1.8452-10.544 0-19.111 2.8996-8.4352 2.8996-13.575 5.931v36.64h-31.632v-64.582h31.632v19.902q2.8996-4.8766 8.8306-9.7532 6.0628-5.0084 15.816-8.567 9.885-3.5586 22.801-3.5586 14.103 0 24.383 5.1402 10.412 5.0084 14.234 16.739 2.7678-4.3494 9.226-9.3578 6.4582-5.1402 16.343-8.8306 10.017-3.6904 22.274-3.6904zm139.1 0q14.498 0 25.569 3.954 11.071 3.8222 17.266 11.598 6.3264 7.6444 6.3264 18.716 0 10.544-6.3264 18.32-6.1946 7.6444-17.398 11.73t-25.437 4.0858q-18.452 0-31.237-5.931t-17.529-16.211q-0.3954 11.994-1.8452 20.297h-29.787v-90.942h31.632v46.525q4.8766-10.28 17.529-16.211 12.785-5.931 31.237-5.931zm-11.862 48.371q13.575 0 20.824-3.5586 7.3808-3.5586 7.3808-10.544t-7.249-10.544-20.956-3.5586q-17.002 0-27.019 3.1632-9.885 3.1632-9.885 10.939 0 14.103 36.904 14.103z" stroke-linecap="round" stroke-linejoin="round" stroke-width="4.2835" aria-label="tomb"/></g></svg>
