<?xml version="1.0" encoding="UTF-8"?>
<svg width="127mm" height="127mm" version="1.1" viewBox="0 0 127 127" xml:space="preserve" xmlns="http://www.w3.org/2000/svg"><g transform="translate(-31.532 -69.33)"><g transform="translate(2.9195 -6.2131)"><path d="m88.143 200.56v-1.9844h-3.9688v-3.9688h-3.9688v-40.481h-4.7625v-3.175h-38.894v-3.9688h-3.9688v-3.9688h-3.9688v-59.531h3.9688v-3.9688h3.9688v-3.9688h111.13v3.9688h3.9688v3.9688h3.9688v63.5h-3.9688v3.9688h-3.9688v43.656h-3.9688v3.9688h-4.7625v3.9688h-50.8z" fill="#c1c1c1"/><path d="m88.143 200.56v-1.9844h-3.9688v-3.9688h-3.9688v-40.481h-4.7625v-3.175h-38.894v-3.9688h-3.9688v-3.9688h-3.9688v-59.531h3.9688v-3.9688h3.9688v-3.9688h111.13v3.9688h3.9688v3.9688h3.9688v63.5h-3.9688v3.9688h-3.9688v43.656h-3.9688v3.9688h-4.7625v3.9688h-50.8zm50.8-3.9688v-1.9844h4.7625v-43.656h3.9688v-3.9688h3.9688v-63.5h-3.9688v-3.9688h-111.13v3.9688h-3.9688v59.531h3.9688v3.9688h38.894v3.9688h4.7625v3.175h3.9688v40.481h3.9688v3.9688h50.8zm-42.863-25.797v-19.844h3.9688v39.688h-3.9688zm15.875 0v-19.844h3.9688v39.688h-3.9688zm15.875 0v-19.844h3.9688v39.688h-3.9688zm-31.75-29.766v-1.9844h27.781v-3.9688h-3.9688v-3.9688h3.9688v3.9688h3.9688v3.9688h3.9688v3.9688h-35.719zm-31.75-32.147v-18.256h31.75v36.512h-31.75zm55.563 0v-18.256h19.05v36.512h-19.05z"/></g></g></svg>
